# xmcd
#
# Track frame offsets:
#	150
#	16480
#	31218
#	46037
#	58183
#	74729
#	88927
#	106553
#	120427
#	135462
#	149363
#	161806
#	180026
#	192091
#
# Disc length: 2773 seconds
#
# Revision: 1
# Processed by: cddbd v1.4PL0 Copyright (c) Steve Scherf et al.
# Submitted via: audiograbber 1.80
#
DISCID=b60ad30e
DTITLE=Vários - Jóias Sertanejas Vol. 3
DYEAR=1900
DGENRE=
TTITLE0=Pery and Poly - Sublime Renúncia
TTITLE1=Nicanor and Palmeri - Amor em Segredo
TTITLE2=Creone and Barrerito - Dormindo e Sonhando
TTITLE3=Duo Ciriema - Não Bebas Mais Não
TTITLE4=Tião Carreiro and Pardinho - A Mão do Tempo
TTITLE5=Belmonte and Amaraí - Saudade de Minha Terra
TTITLE6=Tibaji and Miltinho - Orgulhosa e Bonita
TTITLE7=Silveira and Barrinha - Coração Apaixonado
TTITLE8=Trio da Vitória - Vivendo Longe do Meu Bem
TTITLE9=Pedro Bento and Zé da Estrada - Taça da Dor
TTITLE10=Cascatinha and Inhana - Flor do Cafezal
TTITLE11=Camões and Camargo - Amantes Inimigos
TTITLE12=Tibaji and Miltinho - Passarinho do Peito Amarelo
TTITLE13=Mococa and Moraci - Vestido Molhado
EXTD=
EXTT0=
EXTT1=
EXTT2=
EXTT3=
EXTT4=
EXTT5=
EXTT6=
EXTT7=
EXTT8=
EXTT9=
EXTT10=
EXTT11=
EXTT12=
EXTT13=
PLAYORDER=
